# xmcd CD database file
#
# Track frame offsets:
#	150
#	9497
#	22117
#	38902
#	49050
#	57435
#	65640
#	77454
#	91912
#	105475
#	114400
#	129327
#
# Disc length: 1898 seconds
#
# Revision: 2
# Processed by: cddbd v1.5.2PL0 Copyright (c) Steve Scherf et al.
# Submitted via: CDex 1.70beta2
#
DISCID=9307680c
DTITLE=Willie Nelson - Country Hero
DYEAR=2004
DGENRE=Country
TTITLE0=One Step Beyond ( 1962 ) - Willie Nelson
TTITLE1=Any Old Arms Won't Do ( 1969 ) - Willie Nelson
TTITLE2=I Let My Mind Wander ( 1985 ) - Willie Nelson
TTITLE3=Healing Hands Of Time ( 1994 ) - Willie Nelson
TTITLE4=Slow Down Old World ( 1973 ) - Willie Nelson
TTITLE5=You Wouldn't Cross The Street To Say Goodbye ( 1985 ) - Willie Nelson
TTITLE6=Night Life ( 1979 and 1960 as Paul Buskirk, 1963, 1965 ) - Willie Nelson
TTITLE7=Will You Remember Mine ( 1978 ) - Willie Nelson
TTITLE8=A Moment Isn't Very Long ( 1967 ) - Willie Nelson
TTITLE9=Waiting Time ( 1994 ) - Willie Nelson
TTITLE10=Face Of A Fighter ( 1978 ) - Willie Nelson
TTITLE11=You'll Always Have Someone ( 1963 ) - Willie Nelson
EXTD=YEAR: 2004
EXTT0=
EXTT1=
EXTT2=
EXTT3=
EXTT4=
EXTT5=
EXTT6=
EXTT7=
EXTT8=
EXTT9=
EXTT10=
EXTT11=
PLAYORDER=
